<mxfile host="app.diagrams.net" modified="2022-05-30T07:44:54.532Z" agent="5.0 (Windows NT 10.0; Win64; x64) AppleWebKit/537.36 (KHTML, like Gecko) Chrome/101.0.4951.67 Safari/537.36" etag="IWvs7oAqJpLSOL7Mqxo1" version="18.1.3" type="github">
  <diagram id="cb2cP1a5hGMDKliexvO2" name="Page-1">
    <mxGraphModel dx="1422" dy="762" grid="1" gridSize="10" guides="1" tooltips="1" connect="1" arrows="1" fold="1" page="1" pageScale="1" pageWidth="850" pageHeight="1100" math="0" shadow="0">
      <root>
        <mxCell id="0" />
        <mxCell id="1" parent="0" />
        <mxCell id="cU1rJ-926KZBDFDqxjbY-2" value="" style="rounded=0;whiteSpace=wrap;html=1;fillColor=#f8cecc;strokeColor=#b85450;" vertex="1" parent="1">
          <mxGeometry x="730" y="10" width="80" height="20" as="geometry" />
        </mxCell>
        <mxCell id="cU1rJ-926KZBDFDqxjbY-3" value="" style="rounded=0;whiteSpace=wrap;html=1;fillColor=#d5e8d4;strokeColor=#82b366;" vertex="1" parent="1">
          <mxGeometry x="730" y="40" width="80" height="20" as="geometry" />
        </mxCell>
        <mxCell id="cU1rJ-926KZBDFDqxjbY-4" value="" style="rounded=0;whiteSpace=wrap;html=1;fillColor=#dae8fc;strokeColor=#6c8ebf;" vertex="1" parent="1">
          <mxGeometry x="730" y="70" width="80" height="20" as="geometry" />
        </mxCell>
        <mxCell id="cU1rJ-926KZBDFDqxjbY-5" value="" style="rounded=0;whiteSpace=wrap;html=1;fillColor=#e1d5e7;strokeColor=#9673a6;" vertex="1" parent="1">
          <mxGeometry x="730" y="100" width="80" height="20" as="geometry" />
        </mxCell>
        <mxCell id="cU1rJ-926KZBDFDqxjbY-6" value="" style="rounded=0;whiteSpace=wrap;html=1;fillColor=#b0e3e6;strokeColor=#0e8088;" vertex="1" parent="1">
          <mxGeometry x="730" y="130" width="80" height="20" as="geometry" />
        </mxCell>
        <mxCell id="cU1rJ-926KZBDFDqxjbY-7" value="" style="rounded=0;whiteSpace=wrap;html=1;" vertex="1" parent="1">
          <mxGeometry x="730" y="160" width="80" height="20" as="geometry" />
        </mxCell>
        <mxCell id="cU1rJ-926KZBDFDqxjbY-9" value="" style="group" vertex="1" connectable="0" parent="1">
          <mxGeometry x="660" y="10" width="57" height="170" as="geometry" />
        </mxCell>
        <mxCell id="cU1rJ-926KZBDFDqxjbY-10" value="Gate" style="rounded=1;whiteSpace=wrap;html=1;fillColor=#eeeeee;strokeColor=#36393d;" vertex="1" parent="cU1rJ-926KZBDFDqxjbY-9">
          <mxGeometry width="57" height="20" as="geometry" />
        </mxCell>
        <mxCell id="cU1rJ-926KZBDFDqxjbY-11" value="Active" style="rounded=1;whiteSpace=wrap;html=1;fillColor=#eeeeee;strokeColor=#36393d;" vertex="1" parent="cU1rJ-926KZBDFDqxjbY-9">
          <mxGeometry y="30" width="57" height="20" as="geometry" />
        </mxCell>
        <mxCell id="cU1rJ-926KZBDFDqxjbY-12" value="M0A" style="rounded=1;whiteSpace=wrap;html=1;fillColor=#eeeeee;strokeColor=#36393d;" vertex="1" parent="cU1rJ-926KZBDFDqxjbY-9">
          <mxGeometry y="60" width="57" height="20" as="geometry" />
        </mxCell>
        <mxCell id="cU1rJ-926KZBDFDqxjbY-13" value="Power rail" style="rounded=1;whiteSpace=wrap;html=1;fillColor=#eeeeee;strokeColor=#36393d;" vertex="1" parent="cU1rJ-926KZBDFDqxjbY-9">
          <mxGeometry y="90" width="57" height="20" as="geometry" />
        </mxCell>
        <mxCell id="cU1rJ-926KZBDFDqxjbY-14" value="MINT" style="rounded=1;whiteSpace=wrap;html=1;fillColor=#eeeeee;strokeColor=#36393d;" vertex="1" parent="cU1rJ-926KZBDFDqxjbY-9">
          <mxGeometry y="120" width="57" height="20" as="geometry" />
        </mxCell>
        <mxCell id="cU1rJ-926KZBDFDqxjbY-15" value="M1" style="rounded=1;whiteSpace=wrap;html=1;fillColor=#eeeeee;strokeColor=#36393d;" vertex="1" parent="cU1rJ-926KZBDFDqxjbY-9">
          <mxGeometry y="150" width="57" height="20" as="geometry" />
        </mxCell>
        <mxCell id="cU1rJ-926KZBDFDqxjbY-16" value="" style="shape=image;verticalLabelPosition=bottom;labelBackgroundColor=default;verticalAlign=top;aspect=fixed;imageAspect=0;image=data:image/jpeg,/9j/4AAQSkZJRgABAQEAYABgAAD/2wBDAAMCAgMCAgMDAwMEAwMEBQgFBQQEBQoHBwYIDAoMDAsKCwsNDhIQDQ4RDgsLEBYQERMUFRUVDA8XGBYUGBIUFRT/2wBDAQMEBAUEBQkFBQkUDQsNFBQUFBQUFBQUFBQUFBQUFBQUFBQUFBQUFBQUFBQUFBQUFBQUFBQUFBQUFBQUFBQUFBT/wAARCAEmALQDASIAAhEBAxEB/8QAHwAAAQUBAQEBAQEAAAAAAAAAAAECAwQFBgcICQoL/8QAtRAAAgEDAwIEAwUFBAQAAAF9AQIDAAQRBRIhMUEGE1FhByJxFDKBkaEII0KxwRVS0fAkM2JyggkKFhcYGRolJicoKSo0NTY3ODk6Q0RFRkdISUpTVFVWV1hZWmNkZWZnaGlqc3R1dnd4eXqDhIWGh4iJipKTlJWWl5iZmqKjpKWmp6ipqrKztLW2t7i5usLDxMXGx8jJytLT1NXW19jZ2uHi4+Tl5ufo6erx8vP09fb3+Pn6/8QAHwEAAwEBAQEBAQEBAQAAAAAAAAECAwQFBgcICQoL/8QAtREAAgECBAQDBAcFBAQAAQJ3AAECAxEEBSExBhJBUQdhcRMiMoEIFEKRobHBCSMzUvAVYnLRChYkNOEl8RcYGRomJygpKjU2Nzg5OkNERUZHSElKU1RVVldYWVpjZGVmZ2hpanN0dXZ3eHl6goOEhYaHiImKkpOUlZaXmJmaoqOkpaanqKmqsrO0tba3uLm6wsPExcbHyMnK0tPU1dbX2Nna4uPk5ebn6Onq8vP09fb3+Pn6/9oADAMBAAIRAxEAPwD9U6KKKACiiigArz62+MFnb+OfG3hzW7UaL/wjdhBq63kk+9LuwdHLTgbRt2PHIjL83RTn5sV3l1M1vazSpE0zxozCNerkDOB7mvzR/aB+MnxW+NGqaBdWf7NHxI0FoPM0zWTHEXOp6PMyPPZ58r5SzxRENzj5+PmoA+tNQ/a40nS/hjHr2oaTeab4hn8PSeIho6W816tjbMHNtJdyRoBCsgVSd2MHcMnbmqfxD/a+0vwT8J9Q1iKBrzxZZeHbbVri2isriWwtLieASQwzzIMR7yRtDMCQVPcGvjf4qftbfE2T4ha34e8PfAHxT4d1/wCIHhs6U+j6nEZbgxW8cyi4tYxGudqTOGU5Hyg8c1U134hfHW98F+K/B2h/s7+NNN0vxhp1jZ6ndX1i8slvPBaQ2jSRYQDY8cEeVblTuIPPAB+rkbb40Y9WANOpka7I0X0AFPoAKKKKACvPfFnxGv8Awf8AFrwZoN5a2/8AwjXiaG6tIr/5hLDqUaiWOJuduySJZscZ3R4716FXxd+2N8WvGusXWsfD3S/gd8QdbtrOa2vNN8aeF8ZhuU2yLLBmJhuUkqcnuwoA9Y0H9puXU5pWj8OXeurq2t31h4YsdDVDcX1nZBUubyR5pEjWMS7gDuGQ0eAS1ZXwy/akudf8JaY114e1rxH4k1K61q5Gn6VaRRS2en2uozWySTrLIgUgIibQS7MGwpr5R8aftX6/8L9M+GXlfs9/ED4e3Hh//indAvLoRyLdieNVa1ZHiAkeTyEfght0eeeQTwt8Tfih4Ht9Mk0L4A/Fy11m1j1G2uNVuLWGaS8gvLyS8dXTyAoZJZDtcdOcg5xQB97/ALO/jrUfiZ8EfB3inV3WTUdWsFupmSLygSxP8H8PGOK9Frx79kWG8tP2dfBdnf8Ah7W/C9zZWz2h03xEFF+gjldFeXaqjLhQ/AHDCvYaACiiigAooooAKKKKACiiigAooooAKKKKAPjz4xf8pLvgD/2Les/+ipK+w6+PPjF/yku+AP8A2Les/wDoqSvsOgAooooAKKKKACiiigD41/4KWf8AID+BX/ZTdK/9Fz19lV8a/wDBSz/kB/Ar/spulf8AouevsqgAooooAKKKKACiiigAooooAKKKKACiiuG+N/xe0j4C/C3XvHmvW93daTo0cck8NiitMweVIxtDMoPLjqRxmgDuaK+UPiF/wUW8F+AfG0XhVPBfjbxLqr6TaayU0HTEudkFxGsiFgJAQQHUHjGTjNYv/DzPw9/0R34sf+E4P/jlAE3xi/5SXfAH/sW9Z/8ARUlfYdfnl4X+NTftIf8ABQL4Q+I9K8CeMfDWl6Jomq211N4j0prZd0kMhUggsMdByRya/Q2gAooooAKKKjuJktoJJpDiONS7HHYDJoAkor5q17/goh8EPDPhHw34k1DxDfxaV4ilvIdOdNJuJHla1kWOfKqhK4Zh169q53/h6d+zz/0Murf+CC9/+N0AZn/BSz/kB/Ar/spulf8AouevsqvzH/a2/bK+F/7SF58F/D3gTVb/AFLVLP4g6ZfzRXGl3FsBColQsGkQAndIvA56ntX6cUAFFFFABRRRQAUUUUAFFFFABRXkn7QXxV8R/D3T9G0/wTpNnr3i/VJZp4dPvd+w2dtH5t0/yEHdt2RpzjzJo85GRXIfE79vn4P/AAfh8LyeJtZvoB4j0qLWbA2mny3KvbyfdJKA4PseaAPoqvmf/gpN/wAmR/FH/r0tv/SyCuB8Uf8ABXD4DaT4d1K80q/1jWNUht3e1086VPALiUD5EMjLtQE4G49Pevnv9sH4l/tQ337Kesa78QdE8HRfD/xfDbI2n6WZPt2kK8sc0DMxOGzsVTy2N3agD2H9l3/k/bWv+yS6J/6DZ19818C/stsG/b21kjkH4SaIR/3zZ199UAFFFFABRXB/Fj4rD4Xw+HUj0G+8R6jr2prpVlY2EsMbGVo5JMs0rooULE3OfSvPPEn7angP4f8AgG/8U+NINW8Lxadrp8OXtnJa/apYb3yjLszAXVlKDO5SR2ODxQB7/VLWv+QNf/8AXvJ/6Ca+Sf8Ah7B+zt/0MOsf+CO5/wDia860P47/ALSP7WGjeMfiD8HdS8L+F/hvpNzcWWmaXrdp5t5rAiQM7OxU+WWDDAyoBOOcFqAPBv2YraG88W/sZQ3EMc8La140DRyqGU/MeoNfrZ/wimif9AfT/wDwFT/CvyO/ZIvPt3ib9imY4Dvq/jFmVegJ5x+tfsNQBlL4V0VJI5F0ewWSNtyOLVMqfUHHBrVoooAKKKKACiiigAooooAKKKKAPM/Ff7Pfg/4hfECbxT4w0u18WFdPj0+x03V7SKe2sVV3eR4lZT88hZdzHtGoFbXwv+F+m/Cnwu3h3S5Xm0eK8ubixtZkQLYwyytILaPAH7tC7BQeQuB2FdlRQBxPxg+Eeg/Gv4ZeIvA+vwkaVrVqbaV4QBJGchkkU4+8rqrDPdRX5zftjfsy/HHwj+yrr1v4y+Mdn4l+H3g+G3ksNNg0zyru9xNHDCtxJ6Ir5HLfdH1H6n18z/8ABSf/AJMj+KP/AF6W3/pZBQB49+y3x+3trQHA/wCFSaJ/6DZ1981+bvwd+KXg/wCFH7cWp6l4z8TaV4X0+4+FeiW8Nzq12lvHJJ5do2xSxALYUnHoDX15/wANn/Af/or/AIM/8HUH/wAVQB7NRXnXgX9oz4W/E7XhovhL4g+HPEmrmNphY6ZqUU8xRcbm2qxOBkc16LQB45+0p8ItS+Lem+D49P0rQdfj0XXY9UutI8STPFaXkSwyx+WWWGbndIrDKEfLU37PXwj1P4W6X4lh1KDR9Ls9U1Q31j4c0F3lsNJjMSI0cTOiE73VpGwiKC5wPX12igCL7LD/AM8Y/wDvkV8WeL/2D/GfhfUPGY+E3xp1L4deBvE001/qnhtdOW5Ecsg/em2lLgxBgMccjjk4GPtiqWtf8ge//wCveT/0E0AfkV+yfbrZ+Kf2KoEJZYtY8ZICepwcV+wVfi58JfiR4e+EMf7Ini/xZfnS/D2l6x4xe7u/Ikm8sNKEX5I1Zj8zKOAetfe3/D0j9mj/AKKJJ/4I9R/+R6APq2ivmDQf+Clv7OnibXNO0fTvH7TahqFxHa20TaNfoHkdgqLuaAAZJAySBX0/QAUUUUAFFFFABRRRQAUUUUAFFFFABWT4r8J6L468P3mheIdLtda0a8ULcWN9EJYZQGDAMp4OCAfqBWtRQB5r4k/Zp+FPjLVItS134eeHNXv4raO0S4vNOikdYYwFSMEj7qgAAdsVmf8ADIfwS/6JT4S/8FEP/wATXrtFAHwvpnwz8J/DP/gp14S0/wAJ+HNN8OWMngS8ne3022WBGkM23eQoAzjjPpX3RXx54k/5SmeDv+yf3f8A6PNfYdABRRRQAUhAYEEZB6ilooAxZvBXh65t4IJtB0yWCAs0Ub2cZWMscsVBXgk9cdah/wCFfeFv+ha0f/wAi/8Aia6CigD4i/4KM+F9F0XSfgbLp+kWFjK/xL0pGktrVI2K+XOcEgDjIHHsK+3a+Nf+Cln/ACA/gV/2U3Sv/Rc9fZVABRRRQAUUUUAFFFFABRRRQAUUUUAFFFFABRRRQB8eeJP+Upng7/sn93/6PNfYdfFfxC8RaV4X/wCCnng++1nU7PSbL/hAbpPtF9OsMe4znA3MQMmvqD/hdXw9/wCh68N/+DaD/wCLoA7SiuL/AOF1fD3/AKHrw3/4NoP/AIuj/hdXw9/6Hrw3/wCDaD/4ugDtKK4v/hdXw9/6Hrw3/wCDaD/4uj/hdXw9/wCh68N/+DaD/wCLoA7SiuL/AOF1fD3/AKHrw3/4NoP/AIuj/hdXw9/6Hrw3/wCDaD/4ugD5p/4KWf8AID+BX/ZTdK/9Fz19lV8I/wDBRX4l+EfEGi/BNdM8U6NqLW3xH0y4nFrfxSmKJY59zttY4UZGSeOa+uv+F1fD3/oevDf/AINoP/i6AO0ori/+F1fD3/oevDf/AINoP/i6+fP2kf2nPEOueNPCHwg+A+saPfeOvFSy3Fx4gEsd3b6JZR/fmKjcGc4bAIP3enIoA+t6K+HfFH7OH7Rvwa8P3PjXwd+0Brfj7xBpsTXd14a8S2yvY6gqjc8US7j5ZIB24wegBFe2/DL9rbwt46/Z38M/FK7iuLNNYdLEaPaxNcXT6iXMRtIUUZdy6tt6fL8xwASAD3WivNvDPx50DWdS1bTNZstT8EatpdidUubHxNFHbt9jBIa5WRHeNo1IIYhyVP3gMirfxO+Ofgz4S+F7vXdf1m3S3t7Nb/7PBKjTywNIkYkjQsNy7pFGc45FAHfUVmeHfEuleLtHg1XRNRttV02fPlXdpIJI3wcHDDg8g0UAadFFFABRRRQAUUUUAeS/Fv8AZS+FPx18QWet+OvB9p4g1S0g+zQ3E8kilY8k7cKwBGSTz61xX/Dun9nT/ol+l/8Af2b/AOLr6PooA+cP+HdP7On/AES/S/8Av7N/8XR/w7p/Z0/6Jfpf/f2b/wCLr6PooA/NH4tfsefB3Qf27vgX4IsPA1jbeFte0vV59S01Xk2XLxW8rxsxLZ+VlB4Pavp//h3T+zp/0S/S/wDv7N/8XXCfHL/lJd+zZ/2Bdd/9JJq+yqAPnD/h3T+zp/0S/S/+/s3/AMXR/wAO6f2dP+iX6X/39m/+Lr6PooA+cP8Ah3T+zp/0S/S/+/s3/wAXR/w7p/Z0/wCiX6X/AN/Zv/i6+j6KAPnD/h3T+zp/0S/S/wDv7N/8XXg/xg+CGifsJ/HLwT8cPh54GlPw9trKfRvFmnaMrzTWkcjZW9CsSSBkBuQBsX+9mv0HpGUOpVgGUjBB6GgD47+In/BTT4Sf8IXLH8OtVuvHvjjUojBpHh/TNOuDM9y4wgkDIAACecZPHFR/BP8AZN8W/Dn9lz4YaTHJZjx/4Z18eL5dPvJCLaW4kEyy2jOoOw+VOyhwCA6g8ivqfQ/hz4T8M6nLqOj+F9G0nUJciS7sdPihlfPXLqoJz9a6KgD508RfCHxn8Z/EOv694lsbDwfu8Jah4Y0vT4rz7ZIXvNplnmkVVUKPLjCquT94nsK5fxf8EviV8SrfURe6PpegmPwG3hy1U6l55mvVurebJKp8sTCHAPUZORX1nRQBl+GdQ1PVNFt7nWNJ/sTUHB82x+0rceXycfvFAByOfxorUooAKKKKACiiigAooooAKKKKACiiigD41+OX/KS79mz/ALAuu/8ApJNX2VXxt8cv+Ul37Nn/AGBtd/8ASSavsmgAooooAKKKKACiiigAooooAKKKKACiiigAooooAKKKKACiisDxt498PfDfQjrPifV7XRNKE0Vv9qu32p5kjhI1+pYgUAb9ecftJXlxp/7O/wAULq0nktbqDwvqcsU8LlHjcWshVlYcgggEEV6MrBlDKQQRkEd68z/ae/5Ns+K//Yqar/6SS0AfntHpeu/GK3/Yx8H3vjvxZoVl4l8M37ajeaLqjQ3MrRhHVy7BgzZGMsDxX0d/w7R0b/ouHxi/8KSP/wCMV4R8Hf8AkfP2CP8AsWNV/wDRS1+n9AHyx8J/+CfXhb4V/F/w98Rj8QPHnizXNCjuI7OPxLqcV1EqzQvE4/1KsBiQnhhyB9K+p6KKACiiigAooooAKKKKACiiigAooooAKKKKACiiigAooooAK+evjx4F8YfGH4laRoGm6Zph8KaHp817dy+IreZ7O+u7lJLdEj8tlJeGIzNnOFMyHqAR9C0UAfLB/Z01f9oD4P8AhLw94/8AEfizwj4h8G3Fzpc174evHsl1URkRR3QJyXjkjSNwT0LuOxryf43/APBPDQvB/wAF/HuuxfFP4k30ml6Bf3q2t5rzyQTGO3dwki4+ZDtwR3BNff8AXmX7T3/JtfxX/wCxU1X/ANJJaAPg34O/8j5+wR/2LGq/+ilr9P6/MD4O/wDI+fsEf9ixqv8A6KWv0/oAKKKKACiiigAooooAKKKKACiiigAooooAKKKKACiiigAooooAKKKKACuY+KHgz/hY3w18WeE/tf2D+3dJutM+1bN/k+dC0e/bkbsbs4yM4rp6KAPinxf+wD4quNB+CcHg74qnwprnw10u402LWE0oSPcebtBdUMmF4UjBJ+91qx/wyb+0r/0dbqH/AITsX/xyvs6igD4P+F83xn+En7b3g74b+NPjBdfETQ9W8PXmqyxTafHbKGQMqrhSTkMA2c+2K+8K+PPHn/KUT4Y/9iPqH/ob19h0AFFFFABRRRQAUUUUAFFFFABRRRQAUUUUAFFFFABRRRQAUUUUAFFFFABRRRQB8eePP+Uonwx/7EfUP/Q3r7Dr488ef8pRPhj/ANiPqH/ob19h0AFFFFABRRRQAUUUUAFFFFABRRRQAUUUUAFFFFABRRRQAUUUUAFeL/tlfErX/g/+zJ488Y+F7pLLX9JtI5bS4khWVUYzxoSUYFTwx6ivaK+b/wDgoz/yZT8VP+wfD/6Uw0AeFXXxm/aL+LXx60vwH8PPHXh/w2o8B6X4lun1jSY5klmmjj83aRGxBLSZA4AGa73/AIVf+2z/ANFm8Af+CL/7TXDfsvf8nzW3/ZHNE/8AQbev0BoA+O/hH+zF8b7f9prQfit8WPHfhjxP/ZOkXOlQw6PZPbSbZckceWqnDEnJOa+xKKKACiiigAooooAKKKKACiiigAooooAKKKKACiiigAooooAK+c/2qJPEF54++EGh6GdRuU1TUNSW602w8RXOhi7WOxkkUPcW/wAwCsoYDBBIxX0ZXL+Ofhh4S+JkNlF4r8O6f4gSykaW1F/Asnkuy7WZCfukjg47UAfK3g3T/j58RPAX2PwF8S7Hw1qPh/X9V0vV4PEVv/a8kZWVXgt0ujkziOJ1Hmthm3YIBUivJv2yPhr+07ov7M3jy98b/Frwzr/hWG0jN/ptloggmnTz4wAr4+U7ip/Cv0U8L+E9F8E6NDpOgaVaaNpkJJS0soVijUk5JwB1J5J714L/AMFGf+TKfip/2D4f/SmGgDw79l7/AJPmtv8Asjmif+g29foDX5/fsvf8nzW3/ZHNE/8AQbev0BoAKKKKACiiigAooooAKKKKACiiigAooooAKKKKACiiigAooooAKKKKACvGP2yPhnr3xi/Zm8d+DfDFvHda9q1pHFawzSrErMJ43OWbgfKp617PRQB+flz8Ff2ivhP8etL8e/Dvwb4c8Qg+A9L8NXUesaosSRywxx+bgK6k4ZMA9CM13v8Awsn9tn/okPw7/wDB2/8A8er7GooA+JNK/ao/aG8H/Hr4ZeBPih8O/CGiWHjS8ltorjSL+SeVVjTc7D94QCMr1HPNfbdfGv7Wn/J6f7KX/YS1P/0QtfZVABRRRQAUUUUAFFFFABRRRQAUUUUAFFFFABRRRQAUUUUAFFFFABRRRQAUUUUAfGv7Wn/J6f7KX/YS1P8A9ELX2VXxr+1p/wAnp/spf9hLU/8A0QtfZVABRRRQAUUUUAFFFFABRRRQAUUUUAFFFFABRRRQAUUUUAFFFFABRRRQAV8p+Jv2vPinofiTVtNsv2ZfGWr2dndzW8OoW93EI7pEcqsqgrwrABh7GvqyvFviH8TLr4O/GGyv/Eequnw913RrhF81V2WGoWitOcNgHE9v5vBJ+a3AGN1AHx78YfiX8Z/if8cvhD4+h/Zt8ZWNv4Gurq4mspJo3e6E0YQBWAwuMZ5Br23/AIbQ+Ln/AEap44/8DIf/AImtGy+NPxL8GeE/DOqeJVtdMs9ftp/EF9ret6fcXVppazTboNNP2bb5HlQMmZZSRkN15x3V58bvEFl8Y4PD+oLpPh/wzcXNpbade6hZ3Ug1rzokYm3ukPko3mM0axuCzFM8bhQB6t4F8QX3irwbo2sanotz4c1C+tY559IvGDTWjsMmJyOCy9Dit2iigAooooAKKKKACiiigAooooAKKKKACiiigAooooAKKKKACiiigArlviP8L/C3xc8PJoXi/R4db0pLqG8W2mZ1AmiYMjZUg8EdM4IJByCRRRQBU8cfB3wp8RriOXX7K7ulWA2rwQandW0E0JOTHNFFKqSof7sisO3Sobr4I+Db3xRb6/Ppk817bXEN3DA+o3Jso5olCxSraeZ5AdAq7W8vIIBBzzRRQB3VFFFABRRRQAUUUUAFFFFABRRRQAUUUUAf/9k=;" vertex="1" parent="1">
          <mxGeometry x="40" y="23" width="180" height="294" as="geometry" />
        </mxCell>
      </root>
    </mxGraphModel>
  </diagram>
</mxfile>
